<svg width="191" height="113" viewBox="0 0 191 113" fill="none" xmlns="http://www.w3.org/2000/svg">
<path d="M80.0909 62H98V15.4545H80.2727C75.4848 15.4545 71.3485 16.3864 67.8636 18.25C64.3636 20.0985 61.6667 22.7651 59.7727 26.25C57.8636 29.7197 56.9091 33.8788 56.9091 38.7273C56.9091 43.5758 57.8561 47.7424 59.75 51.2273C61.6439 54.697 64.3258 57.3636 67.7955 59.2273C71.2652 61.0758 75.3636 62 80.0909 62ZM85.3636 51.2727H80.5455C78.2424 51.2727 76.2803 50.9015 74.6591 50.1591C73.0227 49.4167 71.7803 48.1364 70.9318 46.3182C70.0682 44.5 69.6364 41.9697 69.6364 38.7273C69.6364 35.4848 70.0758 32.9545 70.9545 31.1364C71.8182 29.3182 73.0909 28.0379 74.7727 27.2955C76.4394 26.553 78.4848 26.1818 80.9091 26.1818H85.3636V51.2727Z" fill="#363636"/>
<path d="M97 62V15.4545H117.182C120.727 15.4545 123.705 15.9318 126.114 16.8864C128.538 17.8409 130.364 19.1894 131.591 20.9318C132.833 22.6742 133.455 24.7273 133.455 27.0909C133.455 28.803 133.076 30.3636 132.318 31.7727C131.576 33.1818 130.53 34.3636 129.182 35.3182C127.833 36.2576 126.258 36.9091 124.455 37.2727V37.7273C126.455 37.803 128.273 38.3106 129.909 39.25C131.545 40.1742 132.848 41.4545 133.818 43.0909C134.788 44.7121 135.273 46.6212 135.273 48.8182C135.273 51.3636 134.606 53.6288 133.273 55.6136C131.955 57.5985 130.076 59.1591 127.636 60.2955C125.197 61.4318 122.288 62 118.909 62H97ZM109.636 51.9091H115.545C117.667 51.9091 119.258 51.5152 120.318 50.7273C121.379 49.9242 121.909 48.7424 121.909 47.1818C121.909 46.0909 121.659 45.1667 121.159 44.4091C120.659 43.6515 119.947 43.0758 119.023 42.6818C118.114 42.2879 117.015 42.0909 115.727 42.0909H109.636V51.9091ZM109.636 34.2727H114.818C115.924 34.2727 116.902 34.0985 117.75 33.75C118.598 33.4015 119.258 32.9015 119.727 32.25C120.212 31.5833 120.455 30.7727 120.455 29.8182C120.455 28.3788 119.939 27.2803 118.909 26.5227C117.879 25.75 116.576 25.3636 115 25.3636H109.636V34.2727Z" fill="#363636"/>
<path d="M55.5341 85H49.9375V70.4545H55.4773C56.9735 70.4545 58.2661 70.7457 59.3551 71.3281C60.4489 71.9058 61.2917 72.7391 61.8835 73.8281C62.4801 74.9124 62.7784 76.2121 62.7784 77.7273C62.7784 79.2424 62.4825 80.5445 61.8906 81.6335C61.2988 82.7178 60.4607 83.5511 59.3764 84.1335C58.2921 84.7112 57.0114 85 55.5341 85ZM53.8864 81.6477H55.392C56.1117 81.6477 56.7249 81.5317 57.2315 81.2997C57.7429 81.0677 58.1312 80.6676 58.3963 80.0994C58.6662 79.5312 58.8011 78.7405 58.8011 77.7273C58.8011 76.714 58.6638 75.9233 58.3892 75.3551C58.1193 74.7869 57.7216 74.3868 57.196 74.1548C56.6752 73.9228 56.036 73.8068 55.2784 73.8068H53.8864V81.6477ZM67.7021 85.1705C67.006 85.1705 66.3905 85.0568 65.8555 84.8295C65.3252 84.5975 64.9085 84.2472 64.6055 83.7784C64.3024 83.3097 64.1509 82.7131 64.1509 81.9886C64.1509 81.392 64.2527 80.883 64.4563 80.4616C64.6599 80.0355 64.944 79.6875 65.3086 79.4176C65.6732 79.1477 66.0969 78.9418 66.5799 78.7997C67.0676 78.6577 67.5932 78.5653 68.1566 78.5227C68.7674 78.4754 69.2575 78.4186 69.6268 78.3523C70.0008 78.2812 70.2707 78.1842 70.4364 78.0611C70.6022 77.9332 70.685 77.7652 70.685 77.5568V77.5284C70.685 77.2443 70.5761 77.0265 70.3583 76.875C70.1405 76.7235 69.8612 76.6477 69.5202 76.6477C69.1462 76.6477 68.8408 76.7306 68.604 76.8963C68.372 77.0573 68.2324 77.3059 68.185 77.642H64.5771C64.6244 76.9792 64.8351 76.3684 65.2092 75.8097C65.5879 75.2462 66.1396 74.7964 66.864 74.4602C67.5884 74.1193 68.4928 73.9489 69.5771 73.9489C70.3583 73.9489 71.0591 74.0412 71.6793 74.2259C72.2996 74.4058 72.8275 74.6591 73.2631 74.9858C73.6987 75.3078 74.0302 75.6866 74.2575 76.1222C74.4895 76.553 74.6055 77.0218 74.6055 77.5284V85H70.9407V83.4659H70.8555C70.6377 83.8731 70.3725 84.2022 70.06 84.4531C69.7522 84.7041 69.3995 84.8864 69.0018 85C68.6088 85.1136 68.1755 85.1705 67.7021 85.1705ZM68.9805 82.6989C69.2788 82.6989 69.5581 82.6373 69.8185 82.5142C70.0837 82.3911 70.2991 82.2135 70.4648 81.9815C70.6306 81.7495 70.7134 81.4678 70.7134 81.1364V80.2273C70.6093 80.2699 70.498 80.3101 70.3796 80.348C70.266 80.3859 70.1429 80.4214 70.0103 80.4545C69.8825 80.4877 69.7451 80.5185 69.5984 80.5469C69.4563 80.5753 69.3072 80.6013 69.1509 80.625C68.8479 80.6723 68.5993 80.7505 68.4052 80.8594C68.2158 80.9635 68.0737 81.0938 67.979 81.25C67.8891 81.4015 67.8441 81.572 67.8441 81.7614C67.8441 82.0644 67.9506 82.2964 68.1637 82.4574C68.3768 82.6184 68.649 82.6989 68.9805 82.6989ZM82.9844 74.0909V76.9318H75.7969V74.0909H82.9844ZM77.1889 71.4773H81.1094V81.4915C81.1094 81.643 81.1354 81.7708 81.1875 81.875C81.2396 81.9744 81.3201 82.0502 81.429 82.1023C81.5379 82.1496 81.6776 82.1733 81.848 82.1733C81.9664 82.1733 82.1037 82.1591 82.2599 82.1307C82.4209 82.1023 82.5393 82.0786 82.6151 82.0597L83.1832 84.8153C83.008 84.8674 82.7571 84.9313 82.4304 85.0071C82.1084 85.0829 81.7249 85.1326 81.2798 85.1562C80.3802 85.2036 79.625 85.1113 79.0142 84.8793C78.4034 84.6425 77.9441 84.2708 77.6364 83.7642C77.3286 83.2576 77.1795 82.6231 77.1889 81.8608V71.4773ZM87.6239 85.1705C86.9279 85.1705 86.3124 85.0568 85.7773 84.8295C85.247 84.5975 84.8304 84.2472 84.5273 83.7784C84.2243 83.3097 84.0728 82.7131 84.0728 81.9886C84.0728 81.392 84.1746 80.883 84.3782 80.4616C84.5818 80.0355 84.8659 79.6875 85.2305 79.4176C85.5951 79.1477 86.0188 78.9418 86.5018 78.7997C86.9895 78.6577 87.515 78.5653 88.0785 78.5227C88.6893 78.4754 89.1793 78.4186 89.5487 78.3523C89.9227 78.2812 90.1926 78.1842 90.3583 78.0611C90.524 77.9332 90.6069 77.7652 90.6069 77.5568V77.5284C90.6069 77.2443 90.498 77.0265 90.2802 76.875C90.0624 76.7235 89.783 76.6477 89.4421 76.6477C89.0681 76.6477 88.7627 76.7306 88.5259 76.8963C88.2939 77.0573 88.1542 77.3059 88.1069 77.642H84.4989C84.5463 76.9792 84.757 76.3684 85.131 75.8097C85.5098 75.2462 86.0614 74.7964 86.7859 74.4602C87.5103 74.1193 88.4147 73.9489 89.4989 73.9489C90.2802 73.9489 90.9809 74.0412 91.6012 74.2259C92.2215 74.4058 92.7494 74.6591 93.185 74.9858C93.6206 75.3078 93.9521 75.6866 94.1793 76.1222C94.4113 76.553 94.5273 77.0218 94.5273 77.5284V85H90.8626V83.4659H90.7773C90.5595 83.8731 90.2944 84.2022 89.9819 84.4531C89.6741 84.7041 89.3214 84.8864 88.9237 85C88.5307 85.1136 88.0974 85.1705 87.6239 85.1705ZM88.9023 82.6989C89.2006 82.6989 89.48 82.6373 89.7404 82.5142C90.0056 82.3911 90.221 82.2135 90.3867 81.9815C90.5524 81.7495 90.6353 81.4678 90.6353 81.1364V80.2273C90.5311 80.2699 90.4199 80.3101 90.3015 80.348C90.1879 80.3859 90.0647 80.4214 89.9322 80.4545C89.8043 80.4877 89.667 80.5185 89.5202 80.5469C89.3782 80.5753 89.229 80.6013 89.0728 80.625C88.7698 80.6723 88.5212 80.7505 88.3271 80.8594C88.1377 80.9635 87.9956 81.0938 87.9009 81.25C87.811 81.4015 87.766 81.572 87.766 81.7614C87.766 82.0644 87.8725 82.2964 88.0856 82.4574C88.2987 82.6184 88.5709 82.6989 88.9023 82.6989ZM96.3438 85V70.4545H102.651C103.759 70.4545 104.689 70.6037 105.442 70.902C106.199 71.2003 106.77 71.6217 107.153 72.1662C107.542 72.7107 107.736 73.3523 107.736 74.0909C107.736 74.6259 107.617 75.1136 107.381 75.554C107.149 75.9943 106.822 76.3636 106.401 76.6619C105.979 76.9555 105.487 77.1591 104.923 77.2727V77.4148C105.548 77.4384 106.116 77.5971 106.628 77.8906C107.139 78.1795 107.546 78.5795 107.849 79.0909C108.152 79.5975 108.304 80.1941 108.304 80.8807C108.304 81.6761 108.096 82.384 107.679 83.0043C107.267 83.6245 106.68 84.1122 105.918 84.4673C105.155 84.8224 104.246 85 103.19 85H96.3438ZM100.293 81.8466H102.139C102.802 81.8466 103.299 81.7235 103.631 81.4773C103.962 81.2263 104.128 80.857 104.128 80.3693C104.128 80.0284 104.05 79.7396 103.893 79.5028C103.737 79.2661 103.515 79.0862 103.226 78.9631C102.942 78.84 102.598 78.7784 102.196 78.7784H100.293V81.8466ZM100.293 76.3352H101.912C102.258 76.3352 102.563 76.2808 102.828 76.1719C103.093 76.063 103.299 75.9067 103.446 75.7031C103.598 75.4948 103.673 75.2415 103.673 74.9432C103.673 74.4934 103.512 74.1501 103.19 73.9134C102.868 73.6719 102.461 73.5511 101.969 73.5511H100.293V76.3352ZM112.8 85.1705C112.104 85.1705 111.488 85.0568 110.953 84.8295C110.423 84.5975 110.006 84.2472 109.703 83.7784C109.4 83.3097 109.249 82.7131 109.249 81.9886C109.249 81.392 109.35 80.883 109.554 80.4616C109.758 80.0355 110.042 79.6875 110.406 79.4176C110.771 79.1477 111.195 78.9418 111.678 78.7997C112.165 78.6577 112.691 78.5653 113.254 78.5227C113.865 78.4754 114.355 78.4186 114.724 78.3523C115.098 78.2812 115.368 78.1842 115.534 78.0611C115.7 77.9332 115.783 77.7652 115.783 77.5568V77.5284C115.783 77.2443 115.674 77.0265 115.456 76.875C115.238 76.7235 114.959 76.6477 114.618 76.6477C114.244 76.6477 113.938 76.7306 113.702 76.8963C113.47 77.0573 113.33 77.3059 113.283 77.642H109.675C109.722 76.9792 109.933 76.3684 110.307 75.8097C110.686 75.2462 111.237 74.7964 111.962 74.4602C112.686 74.1193 113.59 73.9489 114.675 73.9489C115.456 73.9489 116.157 74.0412 116.777 74.2259C117.397 74.4058 117.925 74.6591 118.361 74.9858C118.796 75.3078 119.128 75.6866 119.355 76.1222C119.587 76.553 119.703 77.0218 119.703 77.5284V85H116.038V83.4659H115.953C115.735 83.8731 115.47 84.2022 115.158 84.4531C114.85 84.7041 114.497 84.8864 114.099 85C113.706 85.1136 113.273 85.1705 112.8 85.1705ZM114.078 82.6989C114.376 82.6989 114.656 82.6373 114.916 82.5142C115.181 82.3911 115.397 82.2135 115.562 81.9815C115.728 81.7495 115.811 81.4678 115.811 81.1364V80.2273C115.707 80.2699 115.596 80.3101 115.477 80.348C115.364 80.3859 115.241 80.4214 115.108 80.4545C114.98 80.4877 114.843 80.5185 114.696 80.5469C114.554 80.5753 114.405 80.6013 114.249 80.625C113.946 80.6723 113.697 80.7505 113.503 80.8594C113.313 80.9635 113.171 81.0938 113.077 81.25C112.987 81.4015 112.942 81.572 112.942 81.7614C112.942 82.0644 113.048 82.2964 113.261 82.4574C113.474 82.6184 113.747 82.6989 114.078 82.6989ZM125.497 78.8636V85H121.576V74.0909H125.298V76.1648H125.412C125.648 75.4735 126.065 74.9313 126.662 74.5384C127.263 74.1454 127.964 73.9489 128.764 73.9489C129.536 73.9489 130.206 74.1264 130.774 74.4815C131.347 74.8319 131.789 75.3149 132.102 75.9304C132.419 76.5459 132.575 77.2491 132.571 78.0398V85H128.65V78.8636C128.655 78.3239 128.518 77.9001 128.238 77.5923C127.964 77.2846 127.58 77.1307 127.088 77.1307C126.766 77.1307 126.484 77.2017 126.243 77.3438C126.006 77.4811 125.824 77.6799 125.696 77.9403C125.568 78.196 125.502 78.5038 125.497 78.8636ZM138.029 82.4148L138.057 77.7557H138.569L141.211 74.0909H145.614L141.182 79.8011H140.074L138.029 82.4148ZM134.506 85V70.4545H138.426V85H134.506ZM141.239 85L138.739 80.6818L141.296 77.8977L145.728 85H141.239Z" fill="white"/>
<path d="M1.27841 109V97.3636H3.03409V102.42H8.83523V97.3636H10.5966V109H8.83523V103.926H3.03409V109H1.27841ZM16.6932 109.176C15.875 109.176 15.161 108.989 14.5511 108.614C13.9413 108.239 13.4678 107.714 13.1307 107.04C12.7936 106.366 12.625 105.578 12.625 104.676C12.625 103.771 12.7936 102.979 13.1307 102.301C13.4678 101.623 13.9413 101.097 14.5511 100.722C15.161 100.347 15.875 100.159 16.6932 100.159C17.5114 100.159 18.2254 100.347 18.8352 100.722C19.4451 101.097 19.9186 101.623 20.2557 102.301C20.5928 102.979 20.7614 103.771 20.7614 104.676C20.7614 105.578 20.5928 106.366 20.2557 107.04C19.9186 107.714 19.4451 108.239 18.8352 108.614C18.2254 108.989 17.5114 109.176 16.6932 109.176ZM16.6989 107.75C17.2292 107.75 17.6686 107.61 18.017 107.33C18.3655 107.049 18.6231 106.676 18.7898 106.21C18.9602 105.744 19.0455 105.231 19.0455 104.67C19.0455 104.114 18.9602 103.602 18.7898 103.136C18.6231 102.667 18.3655 102.29 18.017 102.006C17.6686 101.722 17.2292 101.58 16.6989 101.58C16.1648 101.58 15.7216 101.722 15.3693 102.006C15.0208 102.29 14.7614 102.667 14.5909 103.136C14.4242 103.602 14.3409 104.114 14.3409 104.67C14.3409 105.231 14.4242 105.744 14.5909 106.21C14.7614 106.676 15.0208 107.049 15.3693 107.33C15.7216 107.61 16.1648 107.75 16.6989 107.75ZM22.6577 109V100.273H24.2884V101.693H24.3963C24.5781 101.212 24.8755 100.837 25.2884 100.568C25.7012 100.295 26.1955 100.159 26.7713 100.159C27.3546 100.159 27.8433 100.295 28.2372 100.568C28.6349 100.841 28.9285 101.216 29.1179 101.693H29.2088C29.4171 101.227 29.7486 100.856 30.2031 100.58C30.6577 100.299 31.1993 100.159 31.8281 100.159C32.6198 100.159 33.2656 100.407 33.7656 100.903C34.2694 101.4 34.5213 102.148 34.5213 103.148V109H32.8224V103.307C32.8224 102.716 32.6615 102.288 32.3395 102.023C32.0175 101.758 31.633 101.625 31.1861 101.625C30.633 101.625 30.2031 101.795 29.8963 102.136C29.5895 102.473 29.4361 102.907 29.4361 103.438V109H27.7429V103.199C27.7429 102.725 27.5952 102.345 27.2997 102.057C27.0043 101.769 26.6198 101.625 26.1463 101.625C25.8243 101.625 25.527 101.71 25.2543 101.881C24.9853 102.047 24.7675 102.28 24.6009 102.58C24.438 102.879 24.3565 103.225 24.3565 103.619V109H22.6577ZM40.5597 109.176C39.6998 109.176 38.9593 108.992 38.3381 108.625C37.7206 108.254 37.2434 107.733 36.9062 107.062C36.5729 106.388 36.4062 105.598 36.4062 104.693C36.4062 103.799 36.5729 103.011 36.9062 102.33C37.2434 101.648 37.7131 101.116 38.3153 100.733C38.9214 100.35 39.6297 100.159 40.4403 100.159C40.9328 100.159 41.41 100.241 41.8722 100.403C42.3343 100.566 42.7491 100.822 43.1165 101.17C43.4839 101.519 43.7737 101.972 43.9858 102.528C44.1979 103.081 44.304 103.754 44.304 104.545V105.148H37.3665V103.875H42.6392C42.6392 103.428 42.5483 103.032 42.3665 102.688C42.1847 102.339 41.929 102.064 41.5994 101.864C41.2737 101.663 40.8911 101.562 40.4517 101.562C39.9744 101.562 39.5578 101.68 39.2017 101.915C38.8494 102.146 38.5767 102.449 38.3835 102.824C38.1941 103.195 38.0994 103.598 38.0994 104.034V105.028C38.0994 105.612 38.2017 106.108 38.4062 106.517C38.6146 106.926 38.9044 107.239 39.2756 107.455C39.6468 107.667 40.0805 107.773 40.5767 107.773C40.8987 107.773 41.1922 107.727 41.4574 107.636C41.7225 107.542 41.9517 107.402 42.1449 107.216C42.3381 107.03 42.4858 106.801 42.5881 106.528L44.196 106.818C44.0672 107.292 43.8362 107.706 43.5028 108.062C43.1733 108.415 42.7585 108.689 42.2585 108.886C41.7623 109.08 41.196 109.176 40.5597 109.176ZM54.0994 109.176C53.2813 109.176 52.5672 108.989 51.9574 108.614C51.3475 108.239 50.8741 107.714 50.5369 107.04C50.1998 106.366 50.0312 105.578 50.0312 104.676C50.0312 103.771 50.1998 102.979 50.5369 102.301C50.8741 101.623 51.3475 101.097 51.9574 100.722C52.5672 100.347 53.2813 100.159 54.0994 100.159C54.9176 100.159 55.6316 100.347 56.2415 100.722C56.8513 101.097 57.3248 101.623 57.6619 102.301C57.9991 102.979 58.1676 103.771 58.1676 104.676C58.1676 105.578 57.9991 106.366 57.6619 107.04C57.3248 107.714 56.8513 108.239 56.2415 108.614C55.6316 108.989 54.9176 109.176 54.0994 109.176ZM54.1051 107.75C54.6354 107.75 55.0748 107.61 55.4233 107.33C55.7718 107.049 56.0294 106.676 56.196 106.21C56.3665 105.744 56.4517 105.231 56.4517 104.67C56.4517 104.114 56.3665 103.602 56.196 103.136C56.0294 102.667 55.7718 102.29 55.4233 102.006C55.0748 101.722 54.6354 101.58 54.1051 101.58C53.571 101.58 53.1278 101.722 52.7756 102.006C52.4271 102.29 52.1676 102.667 51.9972 103.136C51.8305 103.602 51.7472 104.114 51.7472 104.67C51.7472 105.231 51.8305 105.744 51.9972 106.21C52.1676 106.676 52.4271 107.049 52.7756 107.33C53.1278 107.61 53.571 107.75 54.1051 107.75ZM64.2173 100.273V101.636H59.2855V100.273H64.2173ZM60.6378 109V99.2614C60.6378 98.7159 60.7571 98.2633 60.9957 97.9034C61.2344 97.5398 61.5507 97.2689 61.9446 97.0909C62.3385 96.9091 62.7666 96.8182 63.2287 96.8182C63.5696 96.8182 63.8613 96.8466 64.1037 96.9034C64.3461 96.9564 64.526 97.0057 64.6435 97.0511L64.2457 98.4261C64.1662 98.4034 64.0639 98.3769 63.9389 98.3466C63.8139 98.3125 63.6624 98.2955 63.4844 98.2955C63.0715 98.2955 62.776 98.3977 62.598 98.6023C62.4238 98.8068 62.3366 99.1023 62.3366 99.4886V109H60.6378ZM73.4716 109.17C72.767 109.17 72.1383 108.991 71.5852 108.631C71.036 108.267 70.6042 107.75 70.2898 107.08C69.9792 106.405 69.8239 105.597 69.8239 104.653C69.8239 103.71 69.9811 102.903 70.2955 102.233C70.6136 101.562 71.0492 101.049 71.6023 100.693C72.1553 100.337 72.7822 100.159 73.483 100.159C74.0246 100.159 74.4602 100.25 74.7898 100.432C75.1231 100.61 75.3807 100.818 75.5625 101.057C75.7481 101.295 75.892 101.506 75.9943 101.688H76.0966V97.3636H77.7955V109H76.1364V107.642H75.9943C75.892 107.828 75.7443 108.04 75.5511 108.278C75.3617 108.517 75.1004 108.725 74.767 108.903C74.4337 109.081 74.0019 109.17 73.4716 109.17ZM73.8466 107.722C74.3352 107.722 74.7481 107.593 75.0852 107.335C75.4261 107.074 75.6837 106.712 75.858 106.25C76.036 105.788 76.125 105.25 76.125 104.636C76.125 104.03 76.0379 103.5 75.8636 103.045C75.6894 102.591 75.4337 102.237 75.0966 101.983C74.7595 101.729 74.3428 101.602 73.8466 101.602C73.3352 101.602 72.9091 101.735 72.5682 102C72.2273 102.265 71.9697 102.627 71.7955 103.085C71.625 103.544 71.5398 104.061 71.5398 104.636C71.5398 105.22 71.6269 105.744 71.8011 106.21C71.9754 106.676 72.233 107.045 72.5739 107.318C72.9186 107.587 73.3428 107.722 73.8466 107.722ZM82.7599 109.193C82.2069 109.193 81.7069 109.091 81.2599 108.886C80.813 108.678 80.4588 108.377 80.1974 107.983C79.9399 107.589 79.8111 107.106 79.8111 106.534C79.8111 106.042 79.9058 105.636 80.0952 105.318C80.2846 105 80.5402 104.748 80.8622 104.562C81.1842 104.377 81.544 104.237 81.9418 104.142C82.3395 104.047 82.7448 103.975 83.1577 103.926C83.6804 103.866 84.1046 103.816 84.4304 103.778C84.7562 103.737 84.9929 103.67 85.1406 103.58C85.2884 103.489 85.3622 103.341 85.3622 103.136V103.097C85.3622 102.6 85.2221 102.216 84.9418 101.943C84.6652 101.67 84.2524 101.534 83.7031 101.534C83.1312 101.534 82.6804 101.661 82.3509 101.915C82.0251 102.165 81.7997 102.443 81.6747 102.75L80.0781 102.386C80.2675 101.856 80.544 101.428 80.9077 101.102C81.2751 100.773 81.6974 100.534 82.1747 100.386C82.652 100.235 83.1539 100.159 83.6804 100.159C84.0289 100.159 84.3982 100.201 84.7884 100.284C85.1823 100.364 85.5497 100.511 85.8906 100.727C86.2353 100.943 86.5175 101.252 86.7372 101.653C86.9569 102.051 87.0668 102.568 87.0668 103.205V109H85.4077V107.807H85.3395C85.2296 108.027 85.0649 108.242 84.8452 108.455C84.6255 108.667 84.3433 108.843 83.9986 108.983C83.6539 109.123 83.241 109.193 82.7599 109.193ZM83.1293 107.83C83.599 107.83 84.0005 107.737 84.3338 107.551C84.6709 107.366 84.9266 107.123 85.1009 106.824C85.2789 106.521 85.3679 106.197 85.3679 105.852V104.727C85.3073 104.788 85.1899 104.845 85.0156 104.898C84.8452 104.947 84.6501 104.991 84.4304 105.028C84.2107 105.062 83.9967 105.095 83.7884 105.125C83.58 105.152 83.4058 105.174 83.2656 105.193C82.9361 105.235 82.6349 105.305 82.3622 105.403C82.0933 105.502 81.8774 105.644 81.7145 105.83C81.5554 106.011 81.4759 106.254 81.4759 106.557C81.4759 106.977 81.6312 107.295 81.9418 107.511C82.2524 107.723 82.6482 107.83 83.1293 107.83ZM93.4034 100.273V101.636H88.6364V100.273H93.4034ZM89.9148 98.1818H91.6136V106.438C91.6136 106.767 91.6629 107.015 91.7614 107.182C91.8598 107.345 91.9867 107.456 92.142 107.517C92.3011 107.574 92.4735 107.602 92.6591 107.602C92.7955 107.602 92.9148 107.593 93.017 107.574C93.1193 107.555 93.1989 107.54 93.2557 107.528L93.5625 108.932C93.464 108.97 93.3239 109.008 93.142 109.045C92.9602 109.087 92.733 109.11 92.4602 109.114C92.0133 109.121 91.5966 109.042 91.2102 108.875C90.8239 108.708 90.5114 108.451 90.2727 108.102C90.0341 107.754 89.9148 107.316 89.9148 106.79V98.1818ZM97.8224 109.193C97.2694 109.193 96.7694 109.091 96.3224 108.886C95.8755 108.678 95.5213 108.377 95.2599 107.983C95.0024 107.589 94.8736 107.106 94.8736 106.534C94.8736 106.042 94.9683 105.636 95.1577 105.318C95.3471 105 95.6027 104.748 95.9247 104.562C96.2467 104.377 96.6065 104.237 97.0043 104.142C97.402 104.047 97.8073 103.975 98.2202 103.926C98.7429 103.866 99.1671 103.816 99.4929 103.778C99.8187 103.737 100.055 103.67 100.203 103.58C100.351 103.489 100.425 103.341 100.425 103.136V103.097C100.425 102.6 100.285 102.216 100.004 101.943C99.7277 101.67 99.3149 101.534 98.7656 101.534C98.1937 101.534 97.7429 101.661 97.4134 101.915C97.0876 102.165 96.8622 102.443 96.7372 102.75L95.1406 102.386C95.33 101.856 95.6065 101.428 95.9702 101.102C96.3376 100.773 96.7599 100.534 97.2372 100.386C97.7145 100.235 98.2164 100.159 98.7429 100.159C99.0914 100.159 99.4607 100.201 99.8509 100.284C100.245 100.364 100.612 100.511 100.953 100.727C101.298 100.943 101.58 101.252 101.8 101.653C102.019 102.051 102.129 102.568 102.129 103.205V109H100.47V107.807H100.402C100.292 108.027 100.127 108.242 99.9077 108.455C99.688 108.667 99.4058 108.843 99.0611 108.983C98.7164 109.123 98.3035 109.193 97.8224 109.193ZM98.1918 107.83C98.6615 107.83 99.063 107.737 99.3963 107.551C99.7334 107.366 99.9891 107.123 100.163 106.824C100.341 106.521 100.43 106.197 100.43 105.852V104.727C100.37 104.788 100.252 104.845 100.078 104.898C99.9077 104.947 99.7126 104.991 99.4929 105.028C99.2732 105.062 99.0592 105.095 98.8509 105.125C98.6425 105.152 98.4683 105.174 98.3281 105.193C97.9986 105.235 97.6974 105.305 97.4247 105.403C97.1558 105.502 96.9399 105.644 96.777 105.83C96.6179 106.011 96.5384 106.254 96.5384 106.557C96.5384 106.977 96.6937 107.295 97.0043 107.511C97.3149 107.723 97.7107 107.83 98.1918 107.83ZM106.602 107.409L106.517 108.028C106.46 108.483 106.364 108.956 106.227 109.449C106.095 109.945 105.956 110.405 105.812 110.83C105.672 111.254 105.557 111.591 105.466 111.841H104.261C104.311 111.606 104.379 111.288 104.466 110.886C104.553 110.489 104.638 110.044 104.722 109.551C104.805 109.059 104.867 108.557 104.909 108.045L104.966 107.409H106.602ZM111.541 109.193C110.988 109.193 110.488 109.091 110.041 108.886C109.594 108.678 109.24 108.377 108.979 107.983C108.721 107.589 108.592 107.106 108.592 106.534C108.592 106.042 108.687 105.636 108.876 105.318C109.066 105 109.321 104.748 109.643 104.562C109.965 104.377 110.325 104.237 110.723 104.142C111.121 104.047 111.526 103.975 111.939 103.926C112.462 103.866 112.886 103.816 113.212 103.778C113.537 103.737 113.774 103.67 113.922 103.58C114.07 103.489 114.143 103.341 114.143 103.136V103.097C114.143 102.6 114.003 102.216 113.723 101.943C113.446 101.67 113.034 101.534 112.484 101.534C111.912 101.534 111.462 101.661 111.132 101.915C110.806 102.165 110.581 102.443 110.456 102.75L108.859 102.386C109.049 101.856 109.325 101.428 109.689 101.102C110.056 100.773 110.479 100.534 110.956 100.386C111.433 100.235 111.935 100.159 112.462 100.159C112.81 100.159 113.179 100.201 113.57 100.284C113.964 100.364 114.331 100.511 114.672 100.727C115.017 100.943 115.299 101.252 115.518 101.653C115.738 102.051 115.848 102.568 115.848 103.205V109H114.189V107.807H114.121C114.011 108.027 113.846 108.242 113.626 108.455C113.407 108.667 113.125 108.843 112.78 108.983C112.435 109.123 112.022 109.193 111.541 109.193ZM111.911 107.83C112.38 107.83 112.782 107.737 113.115 107.551C113.452 107.366 113.708 107.123 113.882 106.824C114.06 106.521 114.149 106.197 114.149 105.852V104.727C114.089 104.788 113.971 104.845 113.797 104.898C113.626 104.947 113.431 104.991 113.212 105.028C112.992 105.062 112.778 105.095 112.57 105.125C112.361 105.152 112.187 105.174 112.047 105.193C111.717 105.235 111.416 105.305 111.143 105.403C110.875 105.502 110.659 105.644 110.496 105.83C110.337 106.011 110.257 106.254 110.257 106.557C110.257 106.977 110.412 107.295 110.723 107.511C111.034 107.723 111.429 107.83 111.911 107.83ZM118.111 109V100.273H119.81V109H118.111ZM118.969 98.9261C118.673 98.9261 118.42 98.8277 118.207 98.6307C117.999 98.4299 117.895 98.1913 117.895 97.9148C117.895 97.6345 117.999 97.3958 118.207 97.1989C118.42 96.9981 118.673 96.8977 118.969 96.8977C119.264 96.8977 119.516 96.9981 119.724 97.1989C119.937 97.3958 120.043 97.6345 120.043 97.9148C120.043 98.1913 119.937 98.4299 119.724 98.6307C119.516 98.8277 119.264 98.9261 118.969 98.9261ZM122.095 109V100.273H123.737V101.659H123.828C123.987 101.189 124.268 100.82 124.669 100.551C125.074 100.278 125.533 100.142 126.044 100.142C126.15 100.142 126.275 100.146 126.419 100.153C126.567 100.161 126.682 100.17 126.766 100.182V101.807C126.697 101.788 126.576 101.767 126.402 101.744C126.228 101.718 126.054 101.705 125.879 101.705C125.478 101.705 125.12 101.79 124.805 101.96C124.495 102.127 124.249 102.36 124.067 102.659C123.885 102.955 123.794 103.292 123.794 103.67V109H122.095ZM132.825 100.273V101.636H128.058V100.273H132.825ZM129.337 98.1818H131.036V106.438C131.036 106.767 131.085 107.015 131.183 107.182C131.282 107.345 131.409 107.456 131.564 107.517C131.723 107.574 131.895 107.602 132.081 107.602C132.217 107.602 132.337 107.593 132.439 107.574C132.541 107.555 132.621 107.54 132.678 107.528L132.984 108.932C132.886 108.97 132.746 109.008 132.564 109.045C132.382 109.087 132.155 109.11 131.882 109.114C131.435 109.121 131.018 109.042 130.632 108.875C130.246 108.708 129.933 108.451 129.695 108.102C129.456 107.754 129.337 107.316 129.337 106.79V98.1818ZM134.705 109V100.273H136.403V109H134.705ZM135.562 98.9261C135.267 98.9261 135.013 98.8277 134.801 98.6307C134.593 98.4299 134.489 98.1913 134.489 97.9148C134.489 97.6345 134.593 97.3958 134.801 97.1989C135.013 96.9981 135.267 96.8977 135.562 96.8977C135.858 96.8977 136.11 96.9981 136.318 97.1989C136.53 97.3958 136.636 97.6345 136.636 97.9148C136.636 98.1913 136.53 98.4299 136.318 98.6307C136.11 98.8277 135.858 98.9261 135.562 98.9261ZM138.689 109V100.273H140.32V101.693H140.428C140.609 101.212 140.907 100.837 141.32 100.568C141.732 100.295 142.227 100.159 142.803 100.159C143.386 100.159 143.875 100.295 144.268 100.568C144.666 100.841 144.96 101.216 145.149 101.693H145.24C145.448 101.227 145.78 100.856 146.234 100.58C146.689 100.299 147.231 100.159 147.859 100.159C148.651 100.159 149.297 100.407 149.797 100.903C150.301 101.4 150.553 102.148 150.553 103.148V109H148.854V103.307C148.854 102.716 148.693 102.288 148.371 102.023C148.049 101.758 147.664 101.625 147.217 101.625C146.664 101.625 146.234 101.795 145.928 102.136C145.621 102.473 145.467 102.907 145.467 103.438V109H143.774V103.199C143.774 102.725 143.626 102.345 143.331 102.057C143.036 101.769 142.651 101.625 142.178 101.625C141.856 101.625 141.558 101.71 141.286 101.881C141.017 102.047 140.799 102.28 140.632 102.58C140.469 102.879 140.388 103.225 140.388 103.619V109H138.689ZM156.591 109.176C155.731 109.176 154.991 108.992 154.369 108.625C153.752 108.254 153.275 107.733 152.938 107.062C152.604 106.388 152.438 105.598 152.438 104.693C152.438 103.799 152.604 103.011 152.938 102.33C153.275 101.648 153.744 101.116 154.347 100.733C154.953 100.35 155.661 100.159 156.472 100.159C156.964 100.159 157.441 100.241 157.903 100.403C158.366 100.566 158.78 100.822 159.148 101.17C159.515 101.519 159.805 101.972 160.017 102.528C160.229 103.081 160.335 103.754 160.335 104.545V105.148H153.398V103.875H158.67C158.67 103.428 158.58 103.032 158.398 102.688C158.216 102.339 157.96 102.064 157.631 101.864C157.305 101.663 156.922 101.562 156.483 101.562C156.006 101.562 155.589 101.68 155.233 101.915C154.881 102.146 154.608 102.449 154.415 102.824C154.225 103.195 154.131 103.598 154.131 104.034V105.028C154.131 105.612 154.233 106.108 154.438 106.517C154.646 106.926 154.936 107.239 155.307 107.455C155.678 107.667 156.112 107.773 156.608 107.773C156.93 107.773 157.223 107.727 157.489 107.636C157.754 107.542 157.983 107.402 158.176 107.216C158.369 107.03 158.517 106.801 158.619 106.528L160.227 106.818C160.098 107.292 159.867 107.706 159.534 108.062C159.205 108.415 158.79 108.689 158.29 108.886C157.794 109.08 157.227 109.176 156.591 109.176ZM164.43 107.409L164.345 108.028C164.288 108.483 164.192 108.956 164.055 109.449C163.923 109.945 163.785 110.405 163.641 110.83C163.5 111.254 163.385 111.591 163.294 111.841H162.089C162.139 111.606 162.207 111.288 162.294 110.886C162.381 110.489 162.466 110.044 162.55 109.551C162.633 109.059 162.696 108.557 162.737 108.045L162.794 107.409H164.43ZM170.591 109.176C169.731 109.176 168.991 108.992 168.369 108.625C167.752 108.254 167.275 107.733 166.938 107.062C166.604 106.388 166.438 105.598 166.438 104.693C166.438 103.799 166.604 103.011 166.938 102.33C167.275 101.648 167.744 101.116 168.347 100.733C168.953 100.35 169.661 100.159 170.472 100.159C170.964 100.159 171.441 100.241 171.903 100.403C172.366 100.566 172.78 100.822 173.148 101.17C173.515 101.519 173.805 101.972 174.017 102.528C174.229 103.081 174.335 103.754 174.335 104.545V105.148H167.398V103.875H172.67C172.67 103.428 172.58 103.032 172.398 102.688C172.216 102.339 171.96 102.064 171.631 101.864C171.305 101.663 170.922 101.562 170.483 101.562C170.006 101.562 169.589 101.68 169.233 101.915C168.881 102.146 168.608 102.449 168.415 102.824C168.225 103.195 168.131 103.598 168.131 104.034V105.028C168.131 105.612 168.233 106.108 168.438 106.517C168.646 106.926 168.936 107.239 169.307 107.455C169.678 107.667 170.112 107.773 170.608 107.773C170.93 107.773 171.223 107.727 171.489 107.636C171.754 107.542 171.983 107.402 172.176 107.216C172.369 107.03 172.517 106.801 172.619 106.528L174.227 106.818C174.098 107.292 173.867 107.706 173.534 108.062C173.205 108.415 172.79 108.689 172.29 108.886C171.794 109.08 171.227 109.176 170.591 109.176ZM180.294 100.273V101.636H175.527V100.273H180.294ZM176.805 98.1818H178.504V106.438C178.504 106.767 178.554 107.015 178.652 107.182C178.75 107.345 178.877 107.456 179.033 107.517C179.192 107.574 179.364 107.602 179.55 107.602C179.686 107.602 179.805 107.593 179.908 107.574C180.01 107.555 180.089 107.54 180.146 107.528L180.453 108.932C180.355 108.97 180.214 109.008 180.033 109.045C179.851 109.087 179.624 109.11 179.351 109.114C178.904 109.121 178.487 109.042 178.101 108.875C177.714 108.708 177.402 108.451 177.163 108.102C176.925 107.754 176.805 107.316 176.805 106.79V98.1818ZM185.756 109.176C184.911 109.176 184.184 108.985 183.574 108.602C182.968 108.216 182.502 107.684 182.176 107.006C181.85 106.328 181.688 105.551 181.688 104.676C181.688 103.79 181.854 103.008 182.188 102.33C182.521 101.648 182.991 101.116 183.597 100.733C184.203 100.35 184.917 100.159 185.739 100.159C186.402 100.159 186.992 100.282 187.511 100.528C188.03 100.771 188.449 101.112 188.767 101.551C189.089 101.991 189.28 102.504 189.341 103.091H187.688C187.597 102.682 187.388 102.33 187.062 102.034C186.741 101.739 186.309 101.591 185.767 101.591C185.294 101.591 184.879 101.716 184.523 101.966C184.17 102.212 183.896 102.564 183.699 103.023C183.502 103.477 183.403 104.015 183.403 104.636C183.403 105.273 183.5 105.822 183.693 106.284C183.886 106.746 184.159 107.104 184.511 107.358C184.867 107.612 185.286 107.739 185.767 107.739C186.089 107.739 186.381 107.68 186.642 107.562C186.907 107.441 187.129 107.269 187.307 107.045C187.489 106.822 187.616 106.553 187.688 106.239H189.341C189.28 106.803 189.097 107.307 188.79 107.75C188.483 108.193 188.072 108.542 187.557 108.795C187.045 109.049 186.445 109.176 185.756 109.176Z" fill="#E7E7E7" fill-opacity="0.85"/>
</svg>
