<svg width="125" height="77" viewBox="0 0 125 77" fill="none" xmlns="http://www.w3.org/2000/svg">
<path d="M26.0909 62H44V15.4545H26.2727C21.4848 15.4545 17.3485 16.3864 13.8636 18.25C10.3636 20.0985 7.66667 22.7651 5.77272 26.25C3.86363 29.7197 2.90909 33.8788 2.90909 38.7273C2.90909 43.5758 3.85606 47.7424 5.75 51.2273C7.64394 54.697 10.3258 57.3636 13.7955 59.2273C17.2652 61.0758 21.3636 62 26.0909 62ZM31.3636 51.2727H26.5455C24.2424 51.2727 22.2803 50.9015 20.6591 50.1591C19.0227 49.4167 17.7803 48.1364 16.9318 46.3182C16.0682 44.5 15.6364 41.9697 15.6364 38.7273C15.6364 35.4848 16.0758 32.9545 16.9545 31.1364C17.8182 29.3182 19.0909 28.0379 20.7727 27.2955C22.4394 26.553 24.4848 26.1818 26.9091 26.1818H31.3636V51.2727Z" fill="url(#paint0_linear_129_15)"/>
<path d="M44 62V15.4545H64.1818C67.7273 15.4545 70.7045 15.9318 73.1136 16.8864C75.5379 17.8409 77.3636 19.1894 78.5909 20.9318C79.8333 22.6742 80.4545 24.7273 80.4545 27.0909C80.4545 28.803 80.0758 30.3636 79.3182 31.7727C78.5758 33.1818 77.5303 34.3636 76.1818 35.3182C74.8333 36.2576 73.2576 36.9091 71.4545 37.2727V37.7273C73.4545 37.803 75.2727 38.3106 76.9091 39.25C78.5455 40.1742 79.8485 41.4545 80.8182 43.0909C81.7879 44.7121 82.2727 46.6212 82.2727 48.8182C82.2727 51.3636 81.6061 53.6288 80.2727 55.6136C78.9545 57.5985 77.0758 59.1591 74.6364 60.2955C72.197 61.4318 69.2879 62 65.9091 62H44ZM56.6364 51.9091H62.5455C64.6667 51.9091 66.2576 51.5152 67.3182 50.7273C68.3788 49.9242 68.9091 48.7424 68.9091 47.1818C68.9091 46.0909 68.6591 45.1667 68.1591 44.4091C67.6591 43.6515 66.947 43.0758 66.0227 42.6818C65.1136 42.2879 64.0152 42.0909 62.7273 42.0909H56.6364V51.9091ZM56.6364 34.2727H61.8182C62.9242 34.2727 63.9015 34.0985 64.75 33.75C65.5985 33.4015 66.2576 32.9015 66.7273 32.25C67.2121 31.5833 67.4545 30.7727 67.4545 29.8182C67.4545 28.3788 66.9394 27.2803 65.9091 26.5227C64.8788 25.75 63.5758 25.3636 62 25.3636H56.6364V34.2727Z" fill="url(#paint1_linear_129_15)"/>
<path d="M96.0994 34H93.0387V24.5455H96.1964C97.1228 24.5455 97.9183 24.7347 98.5831 25.1133C99.2479 25.4888 99.7572 26.0289 100.111 26.7337C100.468 27.4354 100.647 28.2771 100.647 29.2589C100.647 30.2437 100.467 31.0901 100.107 31.7979C99.7495 32.5058 99.2325 33.0505 98.5554 33.4322C97.8783 33.8107 97.0597 34 96.0994 34ZM94.4652 32.7536H96.021C96.7411 32.7536 97.3397 32.6181 97.8168 32.3473C98.2938 32.0734 98.6508 31.6779 98.8878 31.1609C99.1248 30.6407 99.2433 30.0067 99.2433 29.2589C99.2433 28.5172 99.1248 27.8878 98.8878 27.3707C98.6539 26.8537 98.3046 26.4613 97.8398 26.1935C97.3751 25.9258 96.7981 25.7919 96.1087 25.7919H94.4652V32.7536ZM104.373 34.157C103.924 34.157 103.518 34.0739 103.155 33.9077C102.791 33.7384 102.504 33.4937 102.291 33.1737C102.082 32.8536 101.977 32.4612 101.977 31.9964C101.977 31.5964 102.054 31.267 102.208 31.0085C102.362 30.75 102.57 30.5453 102.831 30.3945C103.093 30.2437 103.385 30.1299 103.709 30.0529C104.032 29.976 104.361 29.9175 104.696 29.8775C105.121 29.8282 105.466 29.7882 105.731 29.7575C105.995 29.7236 106.188 29.6697 106.308 29.5959C106.428 29.522 106.488 29.402 106.488 29.2358V29.2035C106.488 28.8003 106.374 28.4879 106.146 28.2663C105.921 28.0447 105.586 27.9339 105.14 27.9339C104.675 27.9339 104.309 28.037 104.041 28.2433C103.776 28.4464 103.593 28.6726 103.492 28.9219L102.194 28.6264C102.348 28.1955 102.573 27.8478 102.868 27.5831C103.167 27.3153 103.51 27.1214 103.898 27.0014C104.286 26.8783 104.693 26.8168 105.121 26.8168C105.404 26.8168 105.704 26.8506 106.021 26.9183C106.341 26.983 106.64 27.103 106.917 27.2784C107.197 27.4538 107.426 27.7047 107.605 28.0309C107.783 28.354 107.873 28.7741 107.873 29.2912V34H106.525V33.0305H106.469C106.38 33.209 106.246 33.3845 106.068 33.5568C105.889 33.7292 105.66 33.8723 105.38 33.9862C105.1 34.1 104.764 34.157 104.373 34.157ZM104.673 33.049C105.055 33.049 105.381 32.9736 105.652 32.8228C105.926 32.672 106.134 32.475 106.275 32.2319C106.42 31.9857 106.492 31.7225 106.492 31.4425V30.5284C106.443 30.5777 106.348 30.6238 106.206 30.6669C106.068 30.7069 105.909 30.7423 105.731 30.7731C105.552 30.8008 105.378 30.8269 105.209 30.8516C105.04 30.8731 104.898 30.8916 104.784 30.907C104.516 30.9408 104.272 30.9978 104.05 31.0778C103.832 31.1578 103.656 31.2732 103.524 31.424C103.395 31.5717 103.33 31.7687 103.33 32.0149C103.33 32.3565 103.456 32.6151 103.709 32.7905C103.961 32.9628 104.283 33.049 104.673 33.049ZM113.021 26.9091V28.017H109.148V26.9091H113.021ZM110.187 25.2102H111.567V31.918C111.567 32.1857 111.607 32.3873 111.687 32.5227C111.767 32.6551 111.87 32.7459 111.996 32.7951C112.126 32.8413 112.266 32.8643 112.416 32.8643C112.527 32.8643 112.624 32.8567 112.707 32.8413C112.79 32.8259 112.855 32.8136 112.901 32.8043L113.15 33.9446C113.07 33.9754 112.956 34.0062 112.809 34.0369C112.661 34.0708 112.476 34.0893 112.255 34.0923C111.892 34.0985 111.553 34.0339 111.239 33.8984C110.925 33.763 110.671 33.5537 110.477 33.2706C110.284 32.9875 110.187 32.632 110.187 32.2042V25.2102ZM116.612 34.157C116.162 34.157 115.756 34.0739 115.393 33.9077C115.03 33.7384 114.742 33.4937 114.53 33.1737C114.32 32.8536 114.216 32.4612 114.216 31.9964C114.216 31.5964 114.293 31.267 114.446 31.0085C114.6 30.75 114.808 30.5453 115.07 30.3945C115.331 30.2437 115.624 30.1299 115.947 30.0529C116.27 29.976 116.599 29.9175 116.935 29.8775C117.359 29.8282 117.704 29.7882 117.969 29.7575C118.234 29.7236 118.426 29.6697 118.546 29.5959C118.666 29.522 118.726 29.402 118.726 29.2358V29.2035C118.726 28.8003 118.612 28.4879 118.384 28.2663C118.16 28.0447 117.824 27.9339 117.378 27.9339C116.913 27.9339 116.547 28.037 116.279 28.2433C116.015 28.4464 115.831 28.6726 115.73 28.9219L114.433 28.6264C114.586 28.1955 114.811 27.8478 115.107 27.5831C115.405 27.3153 115.748 27.1214 116.136 27.0014C116.524 26.8783 116.932 26.8168 117.359 26.8168C117.643 26.8168 117.943 26.8506 118.26 26.9183C118.58 26.983 118.878 27.103 119.155 27.2784C119.435 27.4538 119.665 27.7047 119.843 28.0309C120.022 28.354 120.111 28.7741 120.111 29.2912V34H118.763V33.0305H118.707C118.618 33.209 118.484 33.3845 118.306 33.5568C118.127 33.7292 117.898 33.8723 117.618 33.9862C117.338 34.1 117.002 34.157 116.612 34.157ZM116.912 33.049C117.293 33.049 117.62 32.9736 117.89 32.8228C118.164 32.672 118.372 32.475 118.514 32.2319C118.658 31.9857 118.731 31.7225 118.731 31.4425V30.5284C118.681 30.5777 118.586 30.6238 118.444 30.6669C118.306 30.7069 118.147 30.7423 117.969 30.7731C117.79 30.8008 117.616 30.8269 117.447 30.8516C117.278 30.8731 117.136 30.8916 117.022 30.907C116.755 30.9408 116.51 30.9978 116.288 31.0778C116.07 31.1578 115.895 31.2732 115.762 31.424C115.633 31.5717 115.568 31.7687 115.568 32.0149C115.568 32.3565 115.694 32.6151 115.947 32.7905C116.199 32.9628 116.521 33.049 116.912 33.049Z" fill="#363636" fill-opacity="0.5"/>
<path d="M93.0387 50V40.5455H96.5011C97.172 40.5455 97.7275 40.6562 98.1676 40.8778C98.6077 41.0964 98.937 41.3933 99.1555 41.7688C99.3741 42.1412 99.4833 42.5613 99.4833 43.0291C99.4833 43.4231 99.411 43.7554 99.2663 44.0263C99.1217 44.294 98.9278 44.5095 98.6847 44.6726C98.4446 44.8326 98.1799 44.9496 97.8906 45.0234V45.1158C98.2045 45.1312 98.5108 45.2327 98.8093 45.4205C99.1109 45.6051 99.3602 45.8683 99.5572 46.2099C99.7541 46.5515 99.8526 46.967 99.8526 47.4563C99.8526 47.9395 99.7388 48.3735 99.511 48.7582C99.2863 49.1398 98.9386 49.4429 98.4677 49.6676C97.9968 49.8892 97.3951 50 96.6626 50H93.0387ZM94.4652 48.7766H96.5241C97.2074 48.7766 97.6967 48.6443 97.9922 48.3796C98.2876 48.1149 98.4354 47.7841 98.4354 47.3871C98.4354 47.0885 98.36 46.8146 98.2092 46.5653C98.0584 46.3161 97.8429 46.1175 97.5629 45.9698C97.2859 45.8221 96.9566 45.7482 96.5749 45.7482H94.4652V48.7766ZM94.4652 44.6357H96.3764C96.6965 44.6357 96.9843 44.5741 97.2397 44.451C97.4982 44.3279 97.7029 44.1555 97.8537 43.9339C98.0076 43.7093 98.0845 43.4446 98.0845 43.1399C98.0845 42.7491 97.9476 42.4213 97.6737 42.1566C97.3997 41.8919 96.9796 41.7596 96.4134 41.7596H94.4652V44.6357ZM103.497 50.157C103.048 50.157 102.642 50.0739 102.279 49.9077C101.915 49.7384 101.628 49.4937 101.415 49.1737C101.206 48.8536 101.101 48.4612 101.101 47.9964C101.101 47.5964 101.178 47.267 101.332 47.0085C101.486 46.75 101.694 46.5453 101.955 46.3945C102.217 46.2437 102.509 46.1299 102.833 46.0529C103.156 45.976 103.485 45.9175 103.82 45.8775C104.245 45.8282 104.59 45.7882 104.855 45.7575C105.119 45.7236 105.312 45.6697 105.432 45.5959C105.552 45.522 105.612 45.402 105.612 45.2358V45.2035C105.612 44.8003 105.498 44.4879 105.27 44.2663C105.045 44.0447 104.71 43.9339 104.264 43.9339C103.799 43.9339 103.433 44.037 103.165 44.2433C102.9 44.4464 102.717 44.6726 102.616 44.9219L101.318 44.6264C101.472 44.1955 101.697 43.8478 101.992 43.5831C102.291 43.3153 102.634 43.1214 103.022 43.0014C103.41 42.8783 103.817 42.8168 104.245 42.8168C104.528 42.8168 104.828 42.8506 105.145 42.9183C105.465 42.983 105.764 43.103 106.041 43.2784C106.321 43.4538 106.55 43.7047 106.729 44.0309C106.907 44.354 106.997 44.7741 106.997 45.2912V50H105.649V49.0305H105.593C105.504 49.209 105.37 49.3845 105.192 49.5568C105.013 49.7292 104.784 49.8723 104.504 49.9862C104.224 50.1 103.888 50.157 103.497 50.157ZM103.797 49.049C104.179 49.049 104.505 48.9736 104.776 48.8228C105.05 48.672 105.258 48.475 105.399 48.2319C105.544 47.9857 105.616 47.7225 105.616 47.4425V46.5284C105.567 46.5777 105.472 46.6238 105.33 46.6669C105.192 46.7069 105.033 46.7423 104.855 46.7731C104.676 46.8008 104.502 46.8269 104.333 46.8516C104.164 46.8731 104.022 46.8916 103.908 46.907C103.64 46.9408 103.396 46.9978 103.174 47.0778C102.956 47.1578 102.78 47.2732 102.648 47.424C102.519 47.5717 102.454 47.7687 102.454 48.0149C102.454 48.3565 102.58 48.6151 102.833 48.7905C103.085 48.9628 103.407 49.049 103.797 49.049ZM110.215 45.7898V50H108.835V42.9091H110.16V44.0632H110.248C110.411 43.6877 110.666 43.3861 111.014 43.1584C111.365 42.9306 111.807 42.8168 112.339 42.8168C112.822 42.8168 113.245 42.9183 113.609 43.1214C113.972 43.3215 114.253 43.62 114.453 44.017C114.653 44.4141 114.753 44.9049 114.753 45.4897V50H113.373V45.6559C113.373 45.1419 113.239 44.7403 112.972 44.451C112.704 44.1586 112.336 44.0124 111.868 44.0124C111.548 44.0124 111.263 44.0817 111.014 44.2202C110.768 44.3587 110.572 44.5618 110.428 44.8295C110.286 45.0942 110.215 45.4143 110.215 45.7898ZM117.874 47.5948L117.865 45.9098H118.105L120.93 42.9091H122.583L119.361 46.3253H119.144L117.874 47.5948ZM116.605 50V40.5455H117.985V50H116.605ZM121.083 50L118.544 46.63L119.495 45.6651L122.777 50H121.083Z" fill="black" fill-opacity="0.6"/>
<defs>
<linearGradient id="paint0_linear_129_15" x1="21.8012" y1="-7.5" x2="10.4605" y2="76.9716" gradientUnits="userSpaceOnUse">
<stop stop-color="#363636"/>
<stop offset="1" stop-color="#363636" stop-opacity="0"/>
</linearGradient>
<linearGradient id="paint1_linear_129_15" x1="64.0542" y1="-7.5" x2="76.4072" y2="76.6814" gradientUnits="userSpaceOnUse">
<stop stop-color="#363636"/>
<stop offset="1" stop-color="#363636" stop-opacity="0"/>
</linearGradient>
</defs>
</svg>
