<svg xmlns="http://www.w3.org/2000/svg" xmlns:xlink="http://www.w3.org/1999/xlink" width="133.859" height="64.546" viewBox="0 0 133.859 64.546"><defs><linearGradient id="a" x1="0.5" x2="0.5" y2="1" gradientUnits="objectBoundingBox"><stop offset="0" stop-color="#fff"/><stop offset="1" stop-color="gray"/></linearGradient><filter id="b" x="0" y="0" width="59.091" height="64.546" filterUnits="userSpaceOnUse"><feOffset dx="-3" dy="3" input="SourceAlpha"/><feGaussianBlur stdDeviation="3" result="c"/><feFlood flood-opacity="0.149"/><feComposite operator="in" in2="c"/><feComposite in="SourceGraphic"/></filter><filter id="e" x="46.091" y="0" width="56.273" height="64.546" filterUnits="userSpaceOnUse"><feOffset dx="3" dy="3" input="SourceAlpha"/><feGaussianBlur stdDeviation="3" result="f"/><feFlood flood-opacity="0.149"/><feComposite operator="in" in2="f"/><feComposite in="SourceGraphic"/></filter></defs><g transform="translate(8.091 -9.454)"><g transform="matrix(1, 0, 0, 1, -8.09, 9.45)" filter="url(#b)"><path d="M26.091,62H44V15.455H26.273a25.959,25.959,0,0,0-12.409,2.8,19.251,19.251,0,0,0-8.091,8A25.52,25.52,0,0,0,2.909,38.727a25.82,25.82,0,0,0,2.841,12.5,19.494,19.494,0,0,0,8.045,8A25.792,25.792,0,0,0,26.091,62Zm5.273-10.727H26.545a14.072,14.072,0,0,1-5.886-1.114,7.5,7.5,0,0,1-3.727-3.841,18.058,18.058,0,0,1-1.3-7.591,17.783,17.783,0,0,1,1.318-7.591A7.55,7.55,0,0,1,20.773,27.3a15.057,15.057,0,0,1,6.136-1.114h4.455Z" transform="translate(9.09 -9.45)" fill="url(#a)"/></g><g transform="matrix(1, 0, 0, 1, -8.09, 9.45)" filter="url(#e)"><path d="M44,62V15.455H64.182a24.356,24.356,0,0,1,8.932,1.432,11.711,11.711,0,0,1,5.477,4.045,10.331,10.331,0,0,1,1.864,6.159,9.727,9.727,0,0,1-1.136,4.682,10.032,10.032,0,0,1-3.136,3.545,12.48,12.48,0,0,1-4.727,1.955v.455a11.671,11.671,0,0,1,5.455,1.523,10.448,10.448,0,0,1,3.909,3.841,10.947,10.947,0,0,1,1.454,5.727,11.9,11.9,0,0,1-2,6.8A13.315,13.315,0,0,1,74.636,60.3,20.521,20.521,0,0,1,65.909,62ZM56.636,51.909h5.909a7.97,7.97,0,0,0,4.773-1.182,4.171,4.171,0,0,0,1.591-3.545,4.923,4.923,0,0,0-.75-2.773,4.678,4.678,0,0,0-2.136-1.727,8.267,8.267,0,0,0-3.3-.591H56.636Zm0-17.636h5.182a7.669,7.669,0,0,0,2.932-.523,4.448,4.448,0,0,0,1.977-1.5,4.023,4.023,0,0,0,.727-2.432,3.838,3.838,0,0,0-1.545-3.3A6.335,6.335,0,0,0,62,25.364H56.636Z" transform="translate(8.09 -9.45)" fill="url(#a)"/></g><path d="M96.407,34.951H93.039V24.545h3.475a5.224,5.224,0,0,1,2.627.625,4.117,4.117,0,0,1,1.682,1.783,6.066,6.066,0,0,1,.59,2.779,6.1,6.1,0,0,1-.594,2.794,4.176,4.176,0,0,1-1.708,1.8A5.462,5.462,0,0,1,96.407,34.951Zm-1.8-1.372h1.712a3.96,3.96,0,0,0,1.976-.447,2.818,2.818,0,0,0,1.179-1.306,5.031,5.031,0,0,0,.391-2.093,4.968,4.968,0,0,0-.391-2.078,2.764,2.764,0,0,0-1.153-1.3,3.767,3.767,0,0,0-1.905-.442H94.609Zm10.9,1.545a3.183,3.183,0,0,1-1.341-.274,2.261,2.261,0,0,1-.951-.808,2.32,2.32,0,0,1-.346-1.3,2.1,2.1,0,0,1,.254-1.087,1.88,1.88,0,0,1,.686-.676,3.585,3.585,0,0,1,.966-.376,9.6,9.6,0,0,1,1.086-.193l1.139-.132a1.678,1.678,0,0,0,.635-.178.43.43,0,0,0,.2-.4v-.036a1.372,1.372,0,0,0-.376-1.031,1.516,1.516,0,0,0-1.107-.366,1.936,1.936,0,0,0-1.21.341,1.812,1.812,0,0,0-.6.747l-1.429-.325a2.752,2.752,0,0,1,.742-1.148,3.012,3.012,0,0,1,1.134-.64,4.421,4.421,0,0,1,1.346-.2,4.749,4.749,0,0,1,.991.112,2.905,2.905,0,0,1,.986.4,2.2,2.2,0,0,1,.757.828,2.863,2.863,0,0,1,.295,1.387v5.182h-1.484V33.884h-.062a2.163,2.163,0,0,1-.441.579,2.356,2.356,0,0,1-.757.473A2.941,2.941,0,0,1,105.513,35.124Zm.33-1.219a2.184,2.184,0,0,0,1.077-.249,1.738,1.738,0,0,0,.686-.65,1.683,1.683,0,0,0,.239-.869V31.13a.784.784,0,0,1-.315.152,4.9,4.9,0,0,1-.523.117l-.575.086-.468.061a3.766,3.766,0,0,0-.808.188,1.387,1.387,0,0,0-.579.381.954.954,0,0,0-.214.65.972.972,0,0,0,.417.854A1.842,1.842,0,0,0,105.843,33.9Zm9.188-6.758v1.219h-4.263V27.147Zm-3.119-1.87h1.519V32.66a1.334,1.334,0,0,0,.132.666.689.689,0,0,0,.34.3,1.371,1.371,0,0,0,.462.076,1.776,1.776,0,0,0,.32-.025l.214-.041.274,1.255a2.556,2.556,0,0,1-.375.1,2.974,2.974,0,0,1-.61.061,2.675,2.675,0,0,1-1.118-.213,1.918,1.918,0,0,1-.839-.691,2.038,2.038,0,0,1-.319-1.174Zm7.071,9.847a3.185,3.185,0,0,1-1.342-.274,2.258,2.258,0,0,1-.95-.808,2.311,2.311,0,0,1-.346-1.3,2.11,2.11,0,0,1,.253-1.087,1.875,1.875,0,0,1,.687-.676,3.577,3.577,0,0,1,.965-.376,9.575,9.575,0,0,1,1.087-.193l1.138-.132a1.672,1.672,0,0,0,.635-.178.43.43,0,0,0,.2-.4v-.036a1.372,1.372,0,0,0-.376-1.031,1.515,1.515,0,0,0-1.107-.366,1.936,1.936,0,0,0-1.21.341,1.821,1.821,0,0,0-.6.747l-1.427-.325a2.731,2.731,0,0,1,.742-1.148,3,3,0,0,1,1.133-.64,4.426,4.426,0,0,1,1.346-.2,4.751,4.751,0,0,1,.992.112,2.9,2.9,0,0,1,.985.4,2.189,2.189,0,0,1,.757.828,2.85,2.85,0,0,1,.295,1.387v5.182h-1.484V33.884h-.062a2.163,2.163,0,0,1-.441.579,2.356,2.356,0,0,1-.757.473A2.939,2.939,0,0,1,118.983,35.124Zm.33-1.219a2.179,2.179,0,0,0,1.076-.249,1.748,1.748,0,0,0,.687-.65,1.694,1.694,0,0,0,.239-.869V31.13a.8.8,0,0,1-.316.152,4.9,4.9,0,0,1-.523.117l-.575.086-.468.061a3.782,3.782,0,0,0-.808.188,1.394,1.394,0,0,0-.579.381.954.954,0,0,0-.214.65.972.972,0,0,0,.417.854A1.843,1.843,0,0,0,119.313,33.9Z" transform="translate(0 0.424)" fill="rgba(149,145,24,0.81)"/><path d="M93.039,50.951V40.545h3.811a4.065,4.065,0,0,1,1.834.366,2.5,2.5,0,0,1,1.087.981,2.688,2.688,0,0,1,.361,1.387,2.305,2.305,0,0,1-.239,1.1,1.966,1.966,0,0,1-.64.711,2.82,2.82,0,0,1-.874.386v.1a2.073,2.073,0,0,1,1.011.335,2.4,2.4,0,0,1,.823.869,2.706,2.706,0,0,1,.325,1.372,2.758,2.758,0,0,1-.376,1.433,2.562,2.562,0,0,1-1.148,1,4.677,4.677,0,0,1-1.987.366Zm1.57-1.346h2.266a2.4,2.4,0,0,0,1.616-.437,1.406,1.406,0,0,0,.488-1.092,1.714,1.714,0,0,0-.249-.9,1.779,1.779,0,0,0-.711-.655,2.28,2.28,0,0,0-1.087-.244H94.609Zm0-4.557h2.1a2.161,2.161,0,0,0,.95-.2,1.663,1.663,0,0,0,.676-.569,1.508,1.508,0,0,0,.254-.874,1.445,1.445,0,0,0-.452-1.082,1.93,1.93,0,0,0-1.387-.437H94.609Zm9.94,6.077a3.183,3.183,0,0,1-1.341-.274,2.261,2.261,0,0,1-.951-.808,2.32,2.32,0,0,1-.346-1.3,2.1,2.1,0,0,1,.254-1.087,1.88,1.88,0,0,1,.686-.676,3.585,3.585,0,0,1,.966-.376,9.6,9.6,0,0,1,1.086-.193l1.139-.132a1.678,1.678,0,0,0,.635-.178.43.43,0,0,0,.2-.4v-.036a1.372,1.372,0,0,0-.376-1.031,1.516,1.516,0,0,0-1.107-.366,1.936,1.936,0,0,0-1.21.341,1.812,1.812,0,0,0-.6.747l-1.429-.325a2.752,2.752,0,0,1,.742-1.148,3.012,3.012,0,0,1,1.134-.64,4.421,4.421,0,0,1,1.346-.2,4.749,4.749,0,0,1,.991.112,2.905,2.905,0,0,1,.986.4,2.2,2.2,0,0,1,.757.828,2.862,2.862,0,0,1,.295,1.387v5.182h-1.484V49.884h-.062a2.163,2.163,0,0,1-.441.579,2.356,2.356,0,0,1-.757.473A2.941,2.941,0,0,1,104.549,51.124Zm.33-1.219a2.184,2.184,0,0,0,1.077-.249,1.738,1.738,0,0,0,.686-.65,1.683,1.683,0,0,0,.239-.869V47.13a.784.784,0,0,1-.315.152,4.9,4.9,0,0,1-.523.117l-.575.086-.468.061a3.766,3.766,0,0,0-.808.188,1.387,1.387,0,0,0-.579.381.954.954,0,0,0-.214.65.972.972,0,0,0,.417.854A1.842,1.842,0,0,0,104.879,49.9Zm7.064-3.587v4.634h-1.519v-7.8h1.458v1.27h.1a2.227,2.227,0,0,1,.843-1,2.629,2.629,0,0,1,1.458-.376,2.82,2.82,0,0,1,1.4.335,2.242,2.242,0,0,1,.929.986,3.58,3.58,0,0,1,.33,1.621v4.964h-1.519V46.17a1.881,1.881,0,0,0-.441-1.326,1.566,1.566,0,0,0-1.215-.483,1.9,1.9,0,0,0-.94.229,1.641,1.641,0,0,0-.645.671A2.209,2.209,0,0,0,111.943,46.317Zm8.429,1.987-.01-1.854h.264l3.109-3.3h1.819l-3.546,3.76h-.239Zm-1.4,2.647V40.545h1.519V50.951Zm4.928,0-2.794-3.709,1.047-1.062,3.612,4.771Z" transform="translate(0 2.033)" fill="rgba(0,0,0,0.66)"/></g></svg>